<svg width="126" height="90" viewBox="0 0 126 90" fill="none" xmlns="http://www.w3.org/2000/svg">
<path fill-rule="evenodd" clip-rule="evenodd" d="M4.32174 46.4386C4.81295 46.2739 4.70368 46.6033 5.05844 46.2191C5.41321 45.8349 5.24943 45.3408 5.35859 44.9017C6.87184 39.8903 9.55771 35.3166 13.1908 31.564C17.3264 27.1803 21.8986 23.2351 26.8355 19.7906C29.5198 17.8597 32.3274 16.1086 35.2405 14.5488C38.1903 12.9328 41.2238 11.4762 44.3279 10.1852C47.0705 8.98045 49.8764 7.92689 52.7331 7.02919C54.5681 6.46174 56.4492 6.05766 58.3547 5.82165C61.203 5.4287 64.0759 5.24522 66.9507 5.27274C69.708 5.29061 72.4544 5.62209 75.1376 6.26076C80.2131 7.66481 84.9558 10.0822 89.0826 13.3687C95.4956 18.6155 101.507 24.34 107.066 30.4937C109.795 33.2381 113.452 36.1746 116.481 39.3581C118.315 41.1488 119.797 43.2717 120.847 45.6153C121.104 46.2522 121.602 46.7603 122.232 47.028C122.861 47.2956 123.571 47.3008 124.204 47.0424C124.837 46.784 125.342 46.2832 125.609 45.6502C125.875 45.0171 125.88 44.3037 125.623 43.6668C124.671 41.4181 123.372 39.3343 121.775 37.4919C118.473 33.5949 114.052 30.2193 110.859 26.8437C105.116 20.5002 98.9133 14.5927 92.3027 9.16981C87.6118 5.4625 82.23 2.73766 76.4749 1.15615C73.3659 0.394972 70.1778 0.00809075 66.9781 0.00355516C63.8574 -0.0282011 60.7385 0.164374 57.6451 0.579854C55.4661 0.867857 53.3128 1.32665 51.2049 1.95205C48.1678 2.90757 45.1804 4.01585 42.2539 5.27274C38.9519 6.67238 35.8136 8.01717 32.7572 9.77358C29.6391 11.4028 26.6308 13.2363 23.7518 15.2624C17.3085 19.5616 11.5333 24.796 6.61396 30.7956C3.59879 34.6306 1.44793 39.0784 0.31012 43.8315C0.31012 44.2706 -0.126444 44.7097 0.0372924 45.1213C0.201029 45.533 0.0372125 45.1213 0.637579 45.5605C0.594575 45.7947 0.597828 46.0352 0.647239 46.2682C0.696651 46.5011 0.791258 46.722 0.925563 46.9182C1.05987 47.1145 1.23133 47.2822 1.43008 47.4118C1.62883 47.5414 1.85106 47.6304 2.084 47.6736C2.31694 47.7169 2.55605 47.7135 2.78772 47.6638C3.01938 47.6141 3.23902 47.5191 3.43414 47.384C3.62926 47.2489 3.79596 47.0765 3.92483 46.8766C4.0537 46.6767 4.14216 46.4533 4.18516 46.2191L4.32174 46.4386Z" fill="black"/>
<path fill-rule="evenodd" clip-rule="evenodd" d="M1.15637 43.7216C2.57542 57.0593 10.6532 69.1895 21.7054 77.6972C32.4506 86.2369 45.9026 90.5838 59.583 89.9371C66.1958 89.3035 72.6544 87.5498 78.6856 84.7503C87.4391 80.5823 95.8125 75.6509 103.71 70.0128C107.94 67.1038 113.07 64.332 117.546 60.9838C120.716 58.7221 123.483 55.9386 125.732 52.7507C125.994 52.2672 126.067 51.7034 125.939 51.1685C125.811 50.6336 125.49 50.1655 125.038 49.8548C124.587 49.544 124.037 49.4128 123.494 49.4864C122.952 49.56 122.456 49.8333 122.103 50.2533C120.097 53.0153 117.643 55.4181 114.844 57.3612C110.396 60.6545 105.32 63.3715 101.199 66.2256C93.5131 71.6937 85.3788 76.4953 76.8844 80.5787C71.3242 83.1693 65.3771 84.8198 59.2827 85.4637C46.686 86.0591 34.2939 82.0965 24.3523 74.2941C14.0915 66.5549 6.34143 55.5774 4.81322 43.3099C4.78943 43.0716 4.7188 42.8403 4.60552 42.6295C4.49224 42.4188 4.33842 42.2327 4.15314 42.0821C3.96786 41.9315 3.75488 41.8194 3.5262 41.7522C3.29753 41.6851 3.05774 41.6642 2.82098 41.6908C2.34488 41.7525 1.91205 42.0001 1.61591 42.38C1.31978 42.76 1.18422 43.2419 1.23832 43.7216H1.15637Z" fill="black"/>
<path fill-rule="evenodd" clip-rule="evenodd" d="M65.368 18.4182C61.6679 17.8413 57.8865 18.0958 54.2957 19.1635C50.705 20.2311 47.394 22.0854 44.6007 24.5931C41.2386 27.5192 38.6095 31.2008 36.9264 35.3395C35.2433 39.4782 34.5534 43.9576 34.913 48.4144C35.4028 54.1197 37.6655 59.5254 41.3806 63.8653C45.0804 68.2156 50.0118 71.3272 55.5165 72.7846C60.5261 73.9996 65.7484 74.0246 70.7693 72.8575C75.7902 71.6905 80.4719 69.3634 84.4433 66.0608C87.1785 63.6757 89.2158 60.586 90.3361 57.1239C91.4563 53.6618 91.6174 49.9582 90.8018 46.411C90.2118 43.7861 89.1279 41.2989 87.6088 39.0835C85.6167 36.0647 83.0516 33.3477 80.8957 30.6308C78.5443 27.0639 75.7978 23.777 72.7089 20.8333C71.0554 19.4206 69.0592 18.4737 66.9236 18.0889C66.4099 17.9993 65.881 18.0863 65.4225 18.3359L65.368 18.4182ZM65.368 22.4525C62.163 21.8968 58.874 22.0851 55.7525 23.0031C52.6309 23.9211 49.7593 25.5444 47.357 27.7491C44.5303 30.2589 42.331 33.4027 40.9372 36.9261C39.5433 40.4495 38.994 44.2536 39.3339 48.0302C39.7802 52.7618 41.6888 57.2341 44.7917 60.8191C47.8973 64.4026 52.0219 66.9411 56.6081 68.0917C63.7534 69.7107 71.2433 68.5436 77.5663 64.8259C80.6484 63.2402 83.1224 60.6739 84.6032 57.5269C86.084 54.3798 86.4883 50.8286 85.7531 47.4264C85.3118 45.4535 84.4863 43.588 83.3243 41.9377C81.4414 39.0286 78.9581 36.4489 76.9114 33.7045C74.9634 30.9148 72.8587 28.2393 70.6076 25.6908C69.3996 24.2437 67.7961 23.1846 65.9956 22.6446C65.7662 22.596 65.5454 22.5128 65.3407 22.3976L65.368 22.4525Z" fill="black"/>
<path fill-rule="evenodd" clip-rule="evenodd" d="M66.76 40.5656C66.6563 40.2778 66.4819 40.0211 66.2528 39.8195C66.0238 39.618 65.7476 39.4781 65.4502 39.4129C64.5701 39.1324 63.6395 39.0488 62.7239 39.168C61.8083 39.2873 60.9297 39.6066 60.1497 40.1034C59.3697 40.6002 58.7072 41.2625 58.2086 42.044C57.71 42.8255 57.3874 43.7072 57.2634 44.6273C56.8418 46.4053 57.0207 48.274 57.7717 49.9386C58.5227 51.6031 59.8033 52.969 61.4114 53.821C61.925 54.06 62.4656 54.2351 63.0214 54.3424C63.7302 54.4886 64.4547 54.5439 65.1774 54.5071C66.283 54.4773 67.3817 54.3208 68.4521 54.0406C69.3931 53.7683 70.2669 53.3008 71.0173 52.6684C72.2184 51.357 72.9229 49.6627 73.0077 47.8818C73.0925 46.1009 72.5522 44.3466 71.4812 42.9257C70.9915 42.1286 70.2899 41.4852 69.4556 41.0681C68.6214 40.651 67.6875 40.477 66.76 40.5656ZM62.8305 43.557C62.35 44.1105 62.0539 44.8015 61.9844 45.5329C61.8298 46.2375 61.9057 46.9735 62.2007 47.6313C62.4958 48.289 62.9943 48.8332 63.6218 49.1829L64.9317 49.3202L67.4696 48.689C68.0154 48.1675 67.1967 47.3717 66.9784 46.7405C66.5035 47.0824 65.9322 47.2619 65.3482 47.253C64.7643 47.244 64.1987 47.0469 63.7344 46.6906C63.2702 46.3343 62.9318 45.8376 62.769 45.2736C62.6063 44.7095 62.6279 44.1078 62.8305 43.557Z" fill="black"/>
</svg>
