<svg width="100" height="98" viewBox="0 0 100 98" fill="none" xmlns="http://www.w3.org/2000/svg">
<path fill-rule="evenodd" clip-rule="evenodd" d="M53.6606 70.1165C53.6095 69.8261 53.533 69.5409 53.4317 69.2641C52.3663 66.83 50.6006 64.7681 48.3579 63.3389C45.0881 60.9576 41.0283 59.4115 37.5896 57.3756C34.6833 55.6451 32.1911 53.3032 30.2858 50.5123C28.357 47.7294 27.0684 44.5544 26.5116 41.2134C25.9361 37.466 26.4289 33.6294 27.9337 30.1417C29.4282 26.6051 31.6971 23.4453 34.5734 20.8946C36.7939 18.8052 39.5543 17.3762 42.5421 16.7694C44.0074 16.5159 45.5075 16.553 46.9567 16.8785C48.4058 17.2039 49.7757 17.8113 50.9878 18.6661C55.1229 21.4528 58.5686 25.1402 61.0662 29.4514C63.6337 33.7514 65.1177 38.6111 65.3914 43.6151C65.4118 44.3738 65.3875 45.1333 65.3185 45.8895C65.0554 49.2231 64.0725 52.3485 64.1064 55.6679C64.109 55.9719 64.2314 56.2623 64.4471 56.4762C64.6629 56.6902 64.9547 56.8107 65.2594 56.8114C65.5638 56.8025 65.8532 56.6758 66.0665 56.4581C66.2798 56.2404 66.4002 55.9488 66.4022 55.6448C66.3904 52.4574 67.3159 49.3145 67.6136 46.1063C67.6946 45.2495 67.7187 44.3885 67.6858 43.5289C67.4188 38.1736 65.8595 32.9658 63.1405 28.3485C60.462 23.6912 56.7582 19.704 52.3076 16.6869C49.3495 14.6232 45.6875 13.819 42.1269 14.4511C38.6953 15.1384 35.5189 16.761 32.9505 19.1386C29.806 21.93 27.3221 25.3836 25.6795 29.2484C23.9956 33.1578 23.4436 37.4569 24.0865 41.6566C24.7097 45.3456 26.1269 48.8535 28.2407 51.939C30.3544 55.0245 33.1144 57.6142 36.3308 59.5299C39.7298 61.4912 43.7124 62.9825 46.9741 65.2883C48.8091 66.6016 50.3413 68.291 51.4684 70.2441C51.5876 70.4681 51.7751 70.64 51.9133 70.8698C51.9583 70.9836 52.0257 71.0871 52.1115 71.1743C52.1973 71.2615 52.2998 71.3307 52.4129 71.3777C52.526 71.4247 52.6475 71.4486 52.7702 71.448C52.8928 71.4474 53.0142 71.4223 53.1272 71.3741C53.242 71.3286 53.3467 71.2607 53.4352 71.1746C53.5237 71.0884 53.5943 70.9857 53.6428 70.8723C53.6913 70.7589 53.7168 70.637 53.7179 70.5139C53.7189 70.3907 53.6954 70.2686 53.6488 70.1547L53.6606 70.1165Z" fill="black"/>
<path fill-rule="evenodd" clip-rule="evenodd" d="M63.8288 57.045C64.9806 59.754 67.2133 63.2296 68.4006 66.6383C69.2622 68.5797 69.4077 70.7646 68.8116 72.8072C68.6169 73.3644 68.3645 73.9 68.0585 74.4052C67.7287 74.9554 67.3696 75.4875 66.9826 75.9993C66.7287 76.347 66.4465 76.6733 66.1389 76.9749C65.8741 77.2386 65.5698 77.4597 65.2371 77.63C64.5157 77.99 63.7592 78.2745 62.9797 78.4791C62.2994 78.669 61.5874 78.7158 60.889 78.6166C58.9468 77.9674 57.3328 76.5949 56.3831 74.7847C55.1579 72.9693 54.3372 70.9119 53.9763 68.7509C53.9623 68.6011 53.9187 68.4557 53.8482 68.3229C53.7776 68.1902 53.6814 68.0727 53.5651 67.9772C53.4489 67.8818 53.3148 67.8103 53.1706 67.7667C53.0264 67.7232 52.8749 67.7086 52.7249 67.7236C52.574 67.7363 52.4272 67.7789 52.293 67.8492C52.1588 67.9194 52.04 68.0157 51.9436 68.1325C51.8473 68.2492 51.7754 68.3841 51.7321 68.5289C51.6888 68.6737 51.675 68.8256 51.6916 68.9757C52.0686 72.0398 53.2404 74.9503 55.0914 77.4197C56.3561 79.2571 58.2416 80.578 60.4044 81.1418C61.2649 81.2882 62.1453 81.2798 63.0038 81.1169C64.1713 80.8716 65.302 80.4745 66.3668 79.9356C66.8266 79.7055 67.2556 79.4184 67.6435 79.0811C68.1665 78.6151 68.6358 78.0924 69.0429 77.5227C69.5699 76.8196 70.0512 76.0836 70.4839 75.3193C70.7675 74.7822 71.0062 74.2227 71.1973 73.6465C71.8089 71.6976 71.8171 69.6117 71.2209 67.6618C70.1187 63.5691 67.0426 59.472 65.5135 56.3249C65.4636 56.2104 65.391 56.1072 65.3001 56.0215C65.2092 55.9357 65.102 55.8692 64.9847 55.8258C64.8674 55.7823 64.7424 55.763 64.6173 55.7688C64.4922 55.7746 64.3694 55.8054 64.2563 55.8595C64.1428 55.9113 64.0405 55.9849 63.9553 56.0761C63.8702 56.1673 63.8039 56.2743 63.7602 56.391C63.7165 56.5076 63.6963 56.6317 63.7008 56.7561C63.7052 56.8804 63.7342 57.0026 63.7861 57.1156L63.8288 57.045Z" fill="black"/>
<path fill-rule="evenodd" clip-rule="evenodd" d="M54.0872 70.7679C54.3042 70.7832 54.5222 70.7796 54.7386 70.7569C56.5256 70.2753 58.2216 69.503 59.7583 68.4711C61.6297 67.47 63.4255 66.3337 65.1313 65.0713C65.8399 64.5348 66.4963 63.9304 67.1974 63.35C67.4548 63.1665 67.629 62.8887 67.6815 62.5778C67.7341 62.2668 67.6609 61.9482 67.4778 61.6919C67.2948 61.4356 67.017 61.2626 66.7056 61.2111C66.3941 61.1596 66.0745 61.2337 65.8171 61.4171C65.0174 61.8424 64.2301 62.261 63.5282 62.8099C61.809 63.9476 60.1993 65.1706 58.4654 66.2203C57.0247 67.0981 55.3928 67.6464 53.9169 68.6388C53.717 68.7451 53.6325 68.9178 53.4525 69.0615C53.246 69.1682 53.0858 69.3468 53.0023 69.5632C52.9187 69.7797 52.9177 70.0189 52.9993 70.2356C53.0809 70.4522 53.2394 70.6313 53.4449 70.7386C53.6503 70.8459 53.8884 70.874 54.1137 70.8177L54.0872 70.7679Z" fill="black"/>
<path fill-rule="evenodd" clip-rule="evenodd" d="M75.6602 40.9815C76.4353 41.0876 77.2162 41.147 77.9987 41.1592C79.1651 41.0381 80.3197 40.8196 81.4501 40.5058C81.6122 40.4923 81.7698 40.4458 81.9134 40.3691C82.0569 40.2923 82.1832 40.187 82.2844 40.0597C82.3857 39.9324 82.4597 39.7858 82.5019 39.6289C82.5442 39.4721 82.5537 39.3084 82.53 39.1479C82.5062 38.9875 82.4497 38.8337 82.3639 38.6961C82.2781 38.5585 82.1649 38.44 82.0312 38.3481C81.8975 38.2561 81.7462 38.1926 81.5867 38.1614C81.4272 38.1302 81.2629 38.132 81.104 38.1668C79.9616 38.2792 78.8147 38.2024 77.6805 38.3903C76.9211 38.5792 76.1745 38.8162 75.4451 39.0998C75.3227 39.1131 75.2041 39.1503 75.0961 39.2094C74.988 39.2685 74.8928 39.3483 74.8156 39.4443C74.7385 39.5402 74.6812 39.6502 74.6468 39.7682C74.6124 39.8862 74.6017 40.0098 74.6154 40.1318C74.645 40.3768 74.7694 40.6002 74.9622 40.7543C75.1549 40.9084 75.4007 40.981 75.647 40.9566L75.6602 40.9815Z" fill="black"/>
<path fill-rule="evenodd" clip-rule="evenodd" d="M71.4795 26.2459C71.8854 26.3186 72.2969 26.3562 72.7094 26.3584C73.3168 26.28 73.911 26.1198 74.4758 25.8822C75.8758 25.3528 77.2028 24.6473 78.4245 23.7827C78.6824 23.6201 78.8654 23.3622 78.9331 23.0656C79.0009 22.7691 78.9479 22.4582 78.7858 22.2013C78.6237 21.9444 78.3658 21.7627 78.0688 21.696C77.7719 21.6293 77.4601 21.6831 77.2022 21.8457C76.452 22.3022 75.676 22.7148 74.878 23.0815C74.0908 23.5 73.2072 23.5867 72.3354 23.9065C71.9855 24.0926 71.6481 24.2719 71.2608 24.4779C71.0151 24.5157 70.7938 24.6483 70.6446 24.8471C70.4955 25.0459 70.4304 25.2949 70.4634 25.5406C70.5039 25.784 70.6369 26.0022 70.8348 26.1498C71.0327 26.2974 71.2802 26.363 71.5258 26.333L71.4795 26.2459Z" fill="black"/>
<path fill-rule="evenodd" clip-rule="evenodd" d="M65.0958 16.019L66.4513 12.3282C66.606 12.0762 66.6545 11.7736 66.5861 11.4867C66.5177 11.1998 66.3379 10.952 66.0863 10.7977C65.9629 10.7214 65.8255 10.6702 65.6821 10.6472C65.5387 10.6241 65.3921 10.6296 65.2506 10.6633C65.1091 10.6969 64.9756 10.7581 64.8578 10.8434C64.7399 10.9286 64.6401 11.0363 64.5639 11.1601C64.0592 11.8182 63.6781 12.5619 63.439 13.3551C63.2954 14.1124 63.2266 14.8817 63.2336 15.6519C63.2111 15.7727 63.2128 15.8967 63.2385 16.0167C63.2642 16.1368 63.3135 16.2504 63.3835 16.3513C63.4535 16.4521 63.5428 16.538 63.6464 16.6042C63.7499 16.6703 63.8655 16.7153 63.9867 16.7365C64.2314 16.7751 64.4819 16.7164 64.6843 16.5729C64.8867 16.4295 65.0249 16.2128 65.0694 15.9693L65.0958 16.019Z" fill="black"/>
<path fill-rule="evenodd" clip-rule="evenodd" d="M14.8348 39.6614C14.5115 39.6128 14.1855 39.5835 13.8586 39.5737C12.5851 39.6133 11.3143 39.7187 10.0514 39.8894C9.89926 39.9042 9.75149 39.9488 9.61647 40.0206C9.48146 40.0923 9.36188 40.1898 9.26449 40.3076C9.16711 40.4254 9.09387 40.5611 9.04894 40.7069C9.00402 40.8528 8.98827 41.0059 9.00264 41.1576C9.01702 41.3094 9.06118 41.4567 9.13266 41.5912C9.20415 41.7257 9.30151 41.8448 9.41922 41.9416C9.53693 42.0384 9.6727 42.1111 9.81872 42.1555C9.96473 42.1999 10.1182 42.2151 10.2703 42.2003L14.9331 41.6851C15.0655 41.6787 15.1954 41.6463 15.3153 41.5898C15.4353 41.5334 15.543 41.4539 15.6323 41.356C15.7217 41.2581 15.7909 41.1436 15.836 41.0192C15.8811 40.8947 15.9012 40.7627 15.8952 40.6307C15.8892 40.4986 15.8571 40.3691 15.8009 40.2495C15.7447 40.13 15.6654 40.0228 15.5676 39.9339C15.4697 39.8451 15.3553 39.7764 15.2307 39.7318C15.1061 39.6872 14.9738 39.6675 14.8415 39.6739L14.8348 39.6614Z" fill="black"/>
<path fill-rule="evenodd" clip-rule="evenodd" d="M17.8679 53.4742C17.6469 53.513 17.4284 53.5652 17.2137 53.6305C16.3783 53.9627 15.5821 54.3861 14.8395 54.8929C13.8494 55.5251 12.9407 56.2764 12.134 57.1298C11.9362 57.3474 11.8307 57.633 11.84 57.9261C11.8492 58.2192 11.9725 58.4969 12.1836 58.7003C12.3994 58.9004 12.6859 59.0071 12.9808 58.9969C13.2757 58.9867 13.5549 58.8605 13.7576 58.6459C14.3075 58.0802 14.9096 57.5675 15.556 57.1147C16.3462 56.5509 17.268 56.2045 18.089 55.6083C18.2972 55.4507 18.496 55.281 18.6843 55.1001C18.9031 54.9838 19.0668 54.7857 19.1395 54.5494C19.2123 54.3131 19.188 54.0579 19.0721 53.84C18.9563 53.622 18.7583 53.4593 18.5217 53.3874C18.2851 53.3156 18.0293 53.3406 17.8106 53.4569L17.8679 53.4742Z" fill="black"/>
<path fill-rule="evenodd" clip-rule="evenodd" d="M27.6346 63.9143C26.8805 64.5351 26.1631 65.199 25.4862 65.9029C24.5513 67.049 23.7388 68.2892 23.0619 69.6032C22.9766 69.7534 22.9217 69.9189 22.9003 70.0901C22.879 70.2613 22.8916 70.435 22.9375 70.6011C22.9834 70.7672 23.0617 70.9226 23.1679 71.0583C23.2741 71.1941 23.4061 71.3076 23.5564 71.3923C23.7067 71.477 23.8723 71.5313 24.0438 71.552C24.2153 71.5728 24.3893 71.5597 24.5559 71.5133C24.7226 71.467 24.8785 71.3884 25.0149 71.282C25.1512 71.1756 25.2654 71.0435 25.3507 70.8933C26.0819 69.7061 26.9557 68.6666 27.7009 67.5358C28.2263 66.7454 28.6054 65.9211 29.111 65.0934C29.2685 64.9002 29.3437 64.6531 29.3201 64.4056C29.2965 64.1581 29.1761 63.9302 28.985 63.7711C28.8917 63.6916 28.7833 63.6315 28.6662 63.5946C28.5491 63.5576 28.4257 63.5445 28.3033 63.556C28.1809 63.5674 28.062 63.6034 27.9535 63.6615C27.8451 63.7196 27.7494 63.7988 27.6721 63.8944L27.6346 63.9143Z" fill="black"/>
</svg>
